<svg
  width="24px"
  height="24px"
  viewBox="0 0 24 24"
  fill="none"
  xmlns="http://www.w3.org/2000/svg"
>
  <g id="ruler">
    <path
      d="M16 22C14.1144 22 13.1716 22 12.5858 21.4142C12 20.8284 12 19.8856 12 18L12 6C12 4.11438 12 3.17157 12.5858 2.58579C13.1716 2 14.1144 2 16 2L18 2C19.8856 2 20.8284 2 21.4142 2.58579C22 3.17157 22 4.11438 22 6V18C22 19.8856 22 20.8284 21.4142 21.4142C20.8284 22 19.8856 22 18 22H16Z"
      stroke="inherit"
      stroke-width="1.5"
    />
    <path
      d="M12 12H14M12 6L14 6M12 18H14M12 15L15 15M12 9L15 9"
      stroke="inherit"
      stroke-width="1.5"
      stroke-linecap="round"
    />
    <path
      d="M2 5.8L2 4.85C2 3.27599 3.34315 2 5 2C6.65685 2 8 3.27599 8 4.85L8 5.8M2 5.8C2 5.8 3.125 6.75 5 6.75C6.875 6.75 8 5.8 8 5.8M2 5.8L2 15.5338C2 16.1254 2 16.4211 2.03777 16.7114C2.08232 17.0538 2.166 17.3905 2.28733 17.7157C2.39019 17.9914 2.52943 18.2559 2.8079 18.785L3.98794 21.0271M8 5.8L8 15.5338C8 16.1254 8 16.4211 7.96223 16.7114C7.91768 17.0538 7.834 17.3905 7.71267 17.7157C7.60981 17.9914 7.47057 18.2559 7.19209 18.785L6.01206 21.0271M6.01206 21.0271L5.72361 21.5751C5.58657 21.8355 5.30643 22 5 22C4.69357 22 4.41343 21.8355 4.27639 21.5751L3.98794 21.0271M6.01206 21.0271H3.98794"
      stroke="inherit"
      stroke-width="1.5"
    />
  </g>
  <g id="scraping">
    <path
      d="M2 17C2 15.1144 2 14.1716 2.58579 13.5858C3.17157 13 4.11438 13 6 13H18C19.8856 13 20.8284 13 21.4142 13.5858C22 14.1716 22 15.1144 22 17C22 18.8856 22 19.8284 21.4142 20.4142C20.8284 21 19.8856 21 18 21H6C4.11438 21 3.17157 21 2.58579 20.4142C2 19.8284 2 18.8856 2 17Z"
      stroke="inherit"
      stroke-width="1.5"
    />
    <path
      d="M2 6C2 4.11438 2 3.17157 2.58579 2.58579C3.17157 2 4.11438 2 6 2H18C19.8856 2 20.8284 2 21.4142 2.58579C22 3.17157 22 4.11438 22 6C22 7.88562 22 8.82843 21.4142 9.41421C20.8284 10 19.8856 10 18 10H6C4.11438 10 3.17157 10 2.58579 9.41421C2 8.82843 2 7.88562 2 6Z"
      stroke="inherit"
      stroke-width="1.5"
    />
    <path
      d="M11 6H18"
      stroke="inherit"
      stroke-width="1.5"
      stroke-linecap="round"
    />
    <path
      d="M6 6H8"
      stroke="inherit"
      stroke-width="1.5"
      stroke-linecap="round"
    />
    <path
      d="M11 17H18"
      stroke="inherit"
      stroke-width="1.5"
      stroke-linecap="round"
    />
    <path
      d="M6 17H8"
      stroke="inherit"
      stroke-width="1.5"
      stroke-linecap="round"
    />
  </g>
  <g id="js">
    <path
      d="M42.3,11.8,25.7,2.4a4,4,0,0,0-3.4,0L5.7,11.8A3.4,3.4,0,0,0,4,14.7V33.3a3.4,3.4,0,0,0,1.7,2.9l4.4,2.5a7.2,7.2,0,0,0,3.8,1c3.1,0,4.9-1.9,4.9-5.1V16.3a.5.5,0,0,0-.5-.5H16.2a.5.5,0,0,0-.5.5V34.6c0,1.5-1.5,2.9-3.9,1.7L7.2,33.7a.5.5,0,0,1-.2-.4V14.7a.8.8,0,0,1,.2-.5L23.7,4.9h.6l16.5,9.3a.8.8,0,0,1,.2.5V33.3a.5.5,0,0,1-.2.4L24.3,43a.6.6,0,0,1-.6,0l-4.2-2.4a.3.3,0,0,0-.4,0l-2.5,1.1c-.3.1-.7.2.1.7l5.6,3.1a3.1,3.1,0,0,0,3.4,0l16.6-9.3A3.4,3.4,0,0,0,44,33.3V14.7A3.4,3.4,0,0,0,42.3,11.8Z"
    />
    <path
      d="M29.1,30.3c-4.4,0-5.3-1-5.7-3.1a.4.4,0,0,0-.4-.4H20.8a.4.4,0,0,0-.4.4c0,2.7,1.5,6,8.7,6,5.2,0,8.2-2,8.2-5.5s-2.4-4.5-7.5-5.1-5.6-1-5.6-2.2.4-2.2,4.2-2.2,4.7.7,5.2,2.9a.5.5,0,0,0,.5.4h2.1l.4-.2a.4.4,0,0,0,.1-.3c-.3-3.9-3-5.7-8.3-5.7s-7.5,2-7.5,5.2,2.8,4.5,7.3,5,5.9,1.2,5.9,2.3S32.6,30.3,29.1,30.3Z"
    />
  </g>
  <g id="git">
    <path
      fill-rule="evenodd"
      clip-rule="evenodd"
      d="M13.4142 3.82843C12.6332 3.04738 11.3668 3.04738 10.5858 3.82843L9.91421 4.5L11.482 6.06774C11.6472 6.02356 11.8208 6 12 6C13.1046 6 14 6.89543 14 8C14 8.17916 13.9764 8.35282 13.9323 8.51804L15.982 10.5677C16.1472 10.5236 16.3208 10.5 16.5 10.5C17.6046 10.5 18.5 11.3954 18.5 12.5C18.5 13.6046 17.6046 14.5 16.5 14.5C15.3954 14.5 14.5 13.6046 14.5 12.5C14.5 12.3208 14.5236 12.1472 14.5677 11.982L13 10.4142V15.2676C13.5978 15.6134 14 16.2597 14 17C14 18.1046 13.1046 19 12 19C10.8954 19 10 18.1046 10 17C10 16.2597 10.4022 15.6134 11 15.2676V9.73244C10.4022 9.38663 10 8.74028 10 8C10 7.82084 10.0236 7.64718 10.0677 7.48196L8.5 5.91421L3.82843 10.5858C3.04738 11.3668 3.04738 12.6332 3.82843 13.4142L10.5858 20.1716C11.3668 20.9526 12.6332 20.9526 13.4142 20.1716L20.1716 13.4142C20.9526 12.6332 20.9526 11.3668 20.1716 10.5858L13.4142 3.82843ZM9.17157 2.41421C10.7337 0.852115 13.2663 0.852119 14.8284 2.41422L21.5858 9.17157C23.1479 10.7337 23.1479 13.2663 21.5858 14.8284L14.8284 21.5858C13.2663 23.1479 10.7337 23.1479 9.17157 21.5858L2.41421 14.8284C0.852115 13.2663 0.852119 10.7337 2.41422 9.17157L9.17157 2.41421Z"
      fill="inherit"
    />
  </g>
  <g id="python">
    <path
      d="M6 2.5H7M4.5 4V1.5C4.5 0.947715 4.94772 0.5 5.5 0.5H9.5C10.0523 0.5 10.5 0.947715 10.5 1.5V6.5C10.5 7.05228 10.0523 7.5 9.5 7.5H5.5C4.94772 7.5 4.5 7.94772 4.5 8.5V13.5C4.5 14.0523 4.94772 14.5 5.5 14.5H9.5C10.0523 14.5 10.5 14.0523 10.5 13.5V11M8 4.5H1.5C0.947715 4.5 0.5 4.94772 0.5 5.5V10.5C0.5 11.0523 0.947715 11.5 1.5 11.5H4.5M7 10.5H13.5C14.0523 10.5 14.5 10.0523 14.5 9.5V4.5C14.5 3.94772 14.0523 3.5 13.5 3.5H10.5M8 12.5H9"
      stroke="inherit"
    />
  </g>
  <g id="mobile">
    <path
      d="M6 7C6 5.11438 6 4.17157 6.58579 3.58579C7.17157 3 8.11438 3 10 3H12H14C15.8856 3 16.8284 3 17.4142 3.58579C18 4.17157 18 5.11438 18 7V12V17C18 18.8856 18 19.8284 17.4142 20.4142C16.8284 21 15.8856 21 14 21H12H10C8.11438 21 7.17157 21 6.58579 20.4142C6 19.8284 6 18.8856 6 17V12V7Z"
      stroke="inherit"
      stroke-width="2"
      stroke-linejoin="round"
    />
    <path
      d="M11.5 18H12.5"
      stroke="inherit"
      stroke-width="2"
      stroke-linecap="round"
    />
  </g>
  <g id="mobile">
    <path
      fill-rule="evenodd"
      clip-rule="evenodd"
      d="M9.83824 18.4467C10.0103 18.7692 10.1826 19.0598 10.3473 19.3173C8.59745 18.9238 7.07906 17.9187 6.02838 16.5383C6.72181 16.1478 7.60995 15.743 8.67766 15.4468C8.98112 16.637 9.40924 17.6423 9.83824 18.4467ZM11.1618 17.7408C10.7891 17.0421 10.4156 16.1695 10.1465 15.1356C10.7258 15.0496 11.3442 15 12.0001 15C12.6559 15 13.2743 15.0496 13.8535 15.1355C13.5844 16.1695 13.2109 17.0421 12.8382 17.7408C12.5394 18.3011 12.2417 18.7484 12 19.0757C11.7583 18.7484 11.4606 18.3011 11.1618 17.7408ZM9.75 12C9.75 12.5841 9.7893 13.1385 9.8586 13.6619C10.5269 13.5594 11.2414 13.5 12.0001 13.5C12.7587 13.5 13.4732 13.5593 14.1414 13.6619C14.2107 13.1384 14.25 12.5841 14.25 12C14.25 11.4159 14.2107 10.8616 14.1414 10.3381C13.4732 10.4406 12.7587 10.5 12.0001 10.5C11.2414 10.5 10.5269 10.4406 9.8586 10.3381C9.7893 10.8615 9.75 11.4159 9.75 12ZM8.38688 10.0288C8.29977 10.6478 8.25 11.3054 8.25 12C8.25 12.6946 8.29977 13.3522 8.38688 13.9712C7.11338 14.3131 6.05882 14.7952 5.24324 15.2591C4.76698 14.2736 4.5 13.168 4.5 12C4.5 10.832 4.76698 9.72644 5.24323 8.74088C6.05872 9.20472 7.1133 9.68686 8.38688 10.0288ZM10.1465 8.86445C10.7258 8.95042 11.3442 9 12.0001 9C12.6559 9 13.2743 8.95043 13.8535 8.86447C13.5844 7.83055 13.2109 6.95793 12.8382 6.2592C12.5394 5.69894 12.2417 5.25156 12 4.92432C11.7583 5.25156 11.4606 5.69894 11.1618 6.25918C10.7891 6.95791 10.4156 7.83053 10.1465 8.86445ZM15.6131 10.0289C15.7002 10.6479 15.75 11.3055 15.75 12C15.75 12.6946 15.7002 13.3521 15.6131 13.9711C16.8866 14.3131 17.9412 14.7952 18.7568 15.2591C19.233 14.2735 19.5 13.1679 19.5 12C19.5 10.8321 19.233 9.72647 18.7568 8.74093C17.9413 9.20477 16.8867 9.6869 15.6131 10.0289ZM17.9716 7.46178C17.2781 7.85231 16.39 8.25705 15.3224 8.55328C15.0189 7.36304 14.5908 6.35769 14.1618 5.55332C13.9897 5.23077 13.8174 4.94025 13.6527 4.6827C15.4026 5.07623 16.921 6.08136 17.9716 7.46178ZM8.67765 8.55325C7.61001 8.25701 6.7219 7.85227 6.02839 7.46173C7.07906 6.08134 8.59745 5.07623 10.3472 4.6827C10.1826 4.94025 10.0103 5.23076 9.83823 5.5533C9.40924 6.35767 8.98112 7.36301 8.67765 8.55325ZM15.3224 15.4467C15.0189 16.637 14.5908 17.6423 14.1618 18.4467C13.9897 18.7692 13.8174 19.0598 13.6527 19.3173C15.4026 18.9238 16.921 17.9186 17.9717 16.5382C17.2782 16.1477 16.3901 15.743 15.3224 15.4467ZM12 21C16.9706 21 21 16.9706 21 12C21 7.02944 16.9706 3 12 3C7.02944 3 3 7.02944 3 12C3 16.9706 7.02944 21 12 21Z"
      fill="inherit"
    />
  </g>
  <g id="eye">
    <path
      d="M17.7083 7.62494C15.7833 4.59994 12.9667 2.85828 10 2.85828C8.51667 2.85828 7.07501 3.29161 5.75834 4.09994C4.44167 4.91661 3.25834 6.10828 2.29167 7.62494C1.45834 8.93328 1.45834 11.0583 2.29167 12.3666C4.21667 15.3999 7.03334 17.1333 10 17.1333C11.4833 17.1333 12.925 16.6999 14.2417 15.8916C15.5583 15.0749 16.7417 13.8833 17.7083 12.3666C18.5417 11.0666 18.5417 8.93328 17.7083 7.62494ZM10 13.3666C8.13334 13.3666 6.63334 11.8583 6.63334 9.99994C6.63334 8.14161 8.13334 6.63328 10 6.63328C11.8667 6.63328 13.3667 8.14161 13.3667 9.99994C13.3667 11.8583 11.8667 13.3666 10 13.3666Z"
      fill="inherit"
    />
    <path
      d="M10 7.6167C8.69167 7.6167 7.625 8.68337 7.625 10C7.625 11.3084 8.69167 12.375 10 12.375C11.3083 12.375 12.3833 11.3084 12.3833 10C12.3833 8.6917 11.3083 7.6167 10 7.6167Z"
      fill="inherit"
    />
  </g>
  <g id="user">
    <path
      d="M10 9.99996C12.3012 9.99996 14.1667 8.13448 14.1667 5.83329C14.1667 3.53211 12.3012 1.66663 10 1.66663C7.69882 1.66663 5.83334 3.53211 5.83334 5.83329C5.83334 8.13448 7.69882 9.99996 10 9.99996Z"
      fill="inherit"
    />
    <path
      d="M9.99999 12.0834C5.82499 12.0834 2.42499 14.8834 2.42499 18.3334C2.42499 18.5667 2.60832 18.75 2.84165 18.75H17.1583C17.3917 18.75 17.575 18.5667 17.575 18.3334C17.575 14.8834 14.175 12.0834 9.99999 12.0834Z"
      fill="inherit"
    />
  </g>
  <g id="sms">
    <path
      d="M22.6667 4.66663H9.33332C5.33332 4.66663 2.66666 6.66663 2.66666 11.3333V20.6666C2.66666 25.3333 5.33332 27.3333 9.33332 27.3333H22.6667C26.6667 27.3333 29.3333 25.3333 29.3333 20.6666V11.3333C29.3333 6.66663 26.6667 4.66663 22.6667 4.66663ZM23.2933 12.7866L19.12 16.12C18.24 16.8266 17.12 17.1733 16 17.1733C14.88 17.1733 13.7467 16.8266 12.88 16.12L8.70666 12.7866C8.27999 12.44 8.21332 11.8 8.54666 11.3733C8.89332 10.9466 9.51999 10.8666 9.94666 11.2133L14.12 14.5466C15.1333 15.36 16.8533 15.36 17.8667 14.5466L22.04 11.2133C22.4667 10.8666 23.1067 10.9333 23.44 11.3733C23.7867 11.8 23.72 12.44 23.2933 12.7866Z"
    />
  </g>
  <g id="instagram">
    <path
      d="M21.5867 2.66663H10.4133C5.55999 2.66663 2.66666 5.55996 2.66666 10.4133V21.5733C2.66666 26.44 5.55999 29.3333 10.4133 29.3333H21.5733C26.4267 29.3333 29.32 26.44 29.32 21.5866V10.4133C29.3333 5.55996 26.44 2.66663 21.5867 2.66663ZM16 21.1733C13.1467 21.1733 10.8267 18.8533 10.8267 16C10.8267 13.1466 13.1467 10.8266 16 10.8266C18.8533 10.8266 21.1733 13.1466 21.1733 16C21.1733 18.8533 18.8533 21.1733 16 21.1733ZM23.8933 9.17329C23.8267 9.33329 23.7333 9.47996 23.6133 9.61329C23.48 9.73329 23.3333 9.82663 23.1733 9.89329C23.0133 9.95996 22.84 9.99996 22.6667 9.99996C22.3067 9.99996 21.9733 9.86663 21.72 9.61329C21.6 9.47996 21.5067 9.33329 21.44 9.17329C21.3733 9.01329 21.3333 8.83996 21.3333 8.66663C21.3333 8.49329 21.3733 8.31996 21.44 8.15996C21.5067 7.98663 21.6 7.85329 21.72 7.71996C22.0267 7.41329 22.4933 7.26663 22.92 7.35996C23.0133 7.37329 23.0933 7.39996 23.1733 7.43996C23.2533 7.46663 23.3333 7.50663 23.4133 7.55996C23.48 7.59996 23.5467 7.66663 23.6133 7.71996C23.7333 7.85329 23.8267 7.98663 23.8933 8.15996C23.96 8.31996 24 8.49329 24 8.66663C24 8.83996 23.96 9.01329 23.8933 9.17329Z"
    />
  </g>
  <g id="fb">
    <path
      d="M29.3334 21.5866C29.3334 26.44 26.44 29.3333 21.5867 29.3333H20C19.2667 29.3333 18.6667 28.7333 18.6667 28V20.3066C18.6667 19.9466 18.96 19.64 19.32 19.64L21.6667 19.6C21.8534 19.5866 22.0134 19.4533 22.0534 19.2666L22.52 16.72C22.56 16.48 22.3734 16.2533 22.12 16.2533L19.28 16.2933C18.9067 16.2933 18.6134 16 18.6 15.64L18.5467 12.3733C18.5467 12.16 18.72 11.9733 18.9467 11.9733L22.1467 11.92C22.3733 11.92 22.5467 11.7466 22.5467 11.52L22.4933 8.31995C22.4933 8.09328 22.32 7.91996 22.0934 7.91996L18.4933 7.97331C16.28 8.01331 14.52 9.82662 14.56 12.04L14.6267 15.7066C14.64 16.08 14.3467 16.3733 13.9734 16.3866L12.3734 16.4133C12.1467 16.4133 11.9734 16.5866 11.9734 16.8133L12.0134 19.3466C12.0134 19.5733 12.1867 19.7466 12.4134 19.7466L14.0134 19.72C14.3867 19.72 14.68 20.0133 14.6933 20.3733L14.8133 27.9733C14.8267 28.72 14.2267 29.3333 13.48 29.3333H10.4134C5.56002 29.3333 2.66669 26.44 2.66669 21.5733V10.4133C2.66669 5.55996 5.56002 2.66663 10.4134 2.66663H21.5867C26.44 2.66663 29.3334 5.55996 29.3334 10.4133V21.5866Z"
    />
  </g>
  <g id="dribble">
    <path
      d="M21.1733 27.8934C21.2133 28.1067 21.0933 28.3334 20.8933 28.4134C19.3866 29.0134 17.7333 29.3334 16.0267 29.3334C13.08 29.3334 10.36 28.3867 8.15996 26.76C7.9733 26.6267 7.92001 26.36 8.04001 26.16C8.77334 24.8534 11.6399 20.6534 17.9733 18.3067C18.2133 18.2134 18.4799 18.3333 18.5599 18.5733C20.1466 22.8267 20.8933 26.4267 21.1733 27.8934Z"
    />
    <path
      d="M29.0934 18.52C28.4801 21.8 26.64 24.6533 24.0667 26.6C23.7867 26.8133 23.3867 26.6533 23.32 26.32C23.04 24.88 22.36 21.7733 21.0533 18.08C20.96 17.8 21.1467 17.4933 21.4401 17.4533C24.7601 17.0533 27.6667 17.6933 28.7601 17.9866C28.9867 18.0666 29.1334 18.2933 29.0934 18.52Z"
    />
    <path
      d="M28.7867 15.76C27.4268 15.52 23.96 15.0133 20.4134 15.4C20.2 15.4267 20.0134 15.3067 19.9201 15.1067C19.8667 14.9867 19.8267 14.8667 19.7734 14.7467C19.5601 14.2534 19.3334 13.7467 19.1067 13.2534C18.9867 13.0134 19.1067 12.72 19.3467 12.6134C23.0801 11 25.16 8.92002 25.9734 7.98668C26.1734 7.76002 26.5201 7.77338 26.7068 8.01338C28.2401 10.0534 29.1867 12.5467 29.3334 15.24C29.3467 15.5734 29.0801 15.8134 28.7867 15.76Z"
    />
    <path
      d="M24.5867 6.38672C23.8934 7.22672 21.9467 9.22669 18.2534 10.6934C18.04 10.7867 17.7867 10.6934 17.6667 10.48C15.96 7.38669 14.1467 4.7867 13.3067 3.61336C13.1067 3.33336 13.2667 2.93338 13.6 2.88005C14.3734 2.74671 15.1867 2.68005 16.0134 2.68005C19.24 2.68005 22.2134 3.8267 24.5201 5.7467C24.7201 5.89337 24.7467 6.18672 24.5867 6.38672Z"
    />
    <path
      d="M14.6934 11.7867C9.64003 13.0534 5.1733 13.2267 3.54663 13.2534C3.23997 13.2534 3.01335 12.96 3.09335 12.6667C4.05335 8.93338 6.61332 5.81339 9.98666 4.09339C10.1867 3.98673 10.44 4.05337 10.5733 4.24004C11.2667 5.20004 13.1467 7.90673 14.9867 11.0934C15.1333 11.3601 15 11.7067 14.6934 11.7867Z"
    />
    <path
      d="M17.2267 15.4667C17.3467 15.72 17.2 16.0266 16.9334 16.12C11.0267 18.0266 7.49335 22.76 6.42669 24.3867C6.25335 24.6533 5.88002 24.6667 5.68002 24.4267C3.81336 22.1333 2.68002 19.5066 2.68002 16.32V16.08C2.68002 15.8133 2.89334 15.6 3.16 15.6133C4.84 15.68 10.32 15.4533 16.0134 13.8133C16.2267 13.7466 16.4667 13.8533 16.56 14.0533C16.7867 14.52 17.0133 14.9867 17.2267 15.4667Z"
    />
  </g>
  <g id="web">
    <path
      d="M19.5 28.1667C18.07 28.8817 16.8783 29.9434 15.99 31.265C15.4917 32.0234 15.4917 32.9767 15.99 33.735C16.8783 35.0567 18.07 36.1184 19.5 36.8334"
      stroke="white"
      stroke-width="3"
      stroke-linecap="round"
      stroke-linejoin="round"
    />
    <path
      d="M32.955 28.1667C34.385 28.8817 35.5767 29.9434 36.465 31.265C36.9633 32.0234 36.9633 32.9767 36.465 33.735C35.5767 35.0567 34.385 36.1184 32.955 36.8334"
      stroke="white"
      stroke-width="3"
      stroke-linecap="round"
      stroke-linejoin="round"
    />
    <path
      d="M4.33333 28.1666V32.5C4.33333 43.3333 8.66666 47.6666 19.5 47.6666H32.5C43.3333 47.6666 47.6667 43.3333 47.6667 32.5V19.5C47.6667 8.66665 43.3333 4.33331 32.5 4.33331H19.5C8.66666 4.33331 4.33333 8.66665 4.33333 19.5"
      stroke="white"
      stroke-width="3"
      stroke-linecap="round"
      stroke-linejoin="round"
    />
    <path
      d="M4.83167 17.355L46.475 17.3333"
      stroke="white"
      stroke-width="3"
      stroke-linecap="round"
      stroke-linejoin="round"
    />
  </g>
  <g id="burger">
    <path
      d="M13.32 20H36V17.7778H13.32V20ZM0 11.1111H36V8.88889H0V11.1111ZM0 2.22222H36V0H0V2.22222Z"
      fill="white"
    />
  </g>
  <g id="close">
    <rect
      width="31.9446"
      height="1.99654"
      transform="matrix(-0.707106 -0.707107 0.707106 -0.707107 22.5883 24)"
      fill="white"
    />
    <rect
      width="31.9446"
      height="1.99654"
      transform="matrix(0.707106 -0.707107 0.707106 0.707107 0 22.5881)"
      fill="white"
    />
  </g>
  <g id="github">
    <path
      d="M15.4995 0.812317C7.21661 0.812317 0.5 7.55409 0.5 15.8728C0.5 22.5255 4.79726 28.1704 10.76 30.1615C11.5095 30.3004 11.7829 29.8354 11.7829 29.4357C11.7829 29.0786 11.7698 28.1317 11.7626 26.8746C7.58919 27.7857 6.70903 24.8559 6.70903 24.8559C6.02774 23.1159 5.04452 22.6538 5.04452 22.6538C3.68194 21.7189 5.1471 21.7368 5.1471 21.7368C6.65194 21.8428 7.44403 23.2896 7.44403 23.2896C8.78339 25.5909 10.956 24.9255 11.8105 24.5399C11.9455 23.5673 12.334 22.903 12.7623 22.527C9.43226 22.1462 5.93097 20.8552 5.93097 15.0851C5.93097 13.4413 6.515 12.0967 7.47452 11.0428C7.31919 10.662 6.80484 9.13151 7.62064 7.05861C7.62064 7.05861 8.88064 6.65409 11.7456 8.60216C12.9423 8.26828 14.2255 8.10135 15.5015 8.09457C16.7745 8.10135 18.0587 8.2678 19.2573 8.60216C22.1198 6.65409 23.3779 7.05861 23.3779 7.05861C24.1956 9.13151 23.6813 10.662 23.5265 11.0428C24.4884 12.0967 25.069 13.4409 25.069 15.0851C25.069 20.8697 21.5619 22.1423 18.2203 22.5159C18.7589 22.9809 19.2384 23.8993 19.2384 25.3049C19.2384 27.3188 19.2205 28.9417 19.2205 29.4357C19.2205 29.8393 19.491 30.3081 20.2516 30.1596C26.2066 28.1646 30.5 22.5236 30.5 15.8728C30.5 7.55409 23.7834 0.812317 15.4995 0.812317Z"
    />
    <path
      d="M15.4995 0.812317C7.21661 0.812317 0.5 7.55409 0.5 15.8728C0.5 22.5255 4.79726 28.1704 10.76 30.1615C11.5095 30.3004 11.7829 29.8354 11.7829 29.4357C11.7829 29.0786 11.7698 28.1317 11.7626 26.8746C7.58919 27.7857 6.70903 24.8559 6.70903 24.8559C6.02774 23.1159 5.04452 22.6538 5.04452 22.6538C3.68194 21.7189 5.1471 21.7368 5.1471 21.7368C6.65194 21.8428 7.44403 23.2896 7.44403 23.2896C8.78339 25.5909 10.956 24.9255 11.8105 24.5399C11.9455 23.5673 12.334 22.903 12.7623 22.527C9.43226 22.1462 5.93097 20.8552 5.93097 15.0851C5.93097 13.4413 6.515 12.0967 7.47452 11.0428C7.31919 10.662 6.80484 9.13151 7.62064 7.05861C7.62064 7.05861 8.88064 6.65409 11.7456 8.60216C12.9423 8.26828 14.2255 8.10135 15.5015 8.09457C16.7745 8.10135 18.0587 8.2678 19.2573 8.60216C22.1198 6.65409 23.3779 7.05861 23.3779 7.05861C24.1956 9.13151 23.6813 10.662 23.5265 11.0428C24.4884 12.0967 25.069 13.4409 25.069 15.0851C25.069 20.8697 21.5619 22.1423 18.2203 22.5159C18.7589 22.9809 19.2384 23.8993 19.2384 25.3049C19.2384 27.3188 19.2205 28.9417 19.2205 29.4357C19.2205 29.8393 19.491 30.3081 20.2516 30.1596C26.2066 28.1646 30.5 22.5236 30.5 15.8728C30.5 7.55409 23.7834 0.812317 15.4995 0.812317Z"
    />
    <path
      d="M23.3929 7.10059C24.1869 9.15123 23.6803 10.6648 23.526 11.0427C24.4879 12.0966 25.0686 13.4407 25.0686 15.0849C25.0686 20.8696 21.5615 22.1422 18.2198 22.5157C18.7584 22.9807 19.2379 23.8991 19.2379 25.3048C19.2379 27.3187 19.22 28.9416 19.22 29.4356C19.22 29.8391 19.4905 30.308 20.2511 30.1595C26.2066 28.1645 30.5 22.5235 30.5 15.8727C30.5 14.0848 30.1884 12.3709 29.6189 10.7799C27.5508 8.60252 25.249 7.15236 23.3929 7.10059Z"
    />
    <path
      d="M12.1719 23.3219C12.3403 22.9823 12.546 22.7181 12.7623 22.5269C10.9371 22.3179 9.06258 21.8306 7.73919 20.486C8.75726 22.1805 10.415 22.9513 12.1719 23.3219Z"
    />
    <path
      d="M1.28097 16.888C1.28097 8.56925 7.99758 1.82748 16.2805 1.82748C20.8797 1.82748 24.9935 3.90764 27.7444 7.17958C25.0274 3.32796 20.5574 0.812317 15.4995 0.812317C7.21661 0.812317 0.5 7.55409 0.5 15.8728C0.5 19.5817 1.8379 22.9751 4.05355 25.5981C2.31113 23.1386 1.28097 20.1357 1.28097 16.888Z"
    />
    <path
      d="M20.0189 26.3205C20.0189 24.9154 19.5394 23.9955 19.0008 23.5305C22.3424 23.158 25.85 21.8844 25.85 16.1002C25.85 14.456 25.2694 13.1123 24.3065 12.0584C24.4623 11.6776 24.9776 10.1467 24.1579 8.07425C24.1579 8.07425 24.0021 8.02634 23.6803 8.04473C24.0316 9.60763 23.6552 10.7254 23.526 11.0428C24.4879 12.0967 25.0685 13.4409 25.0685 15.0851C25.0685 20.8697 21.5615 22.1423 18.2198 22.5159C18.7584 22.9809 19.2379 23.8992 19.2379 25.3049C19.2379 27.3188 19.22 28.9417 19.22 29.4357C19.22 29.7909 19.4315 30.1959 20.0015 30.1862C20.0053 29.5054 20.0189 28.06 20.0189 26.3205Z"
    />
    <path
      d="M7.60468 26.1448C7.91968 26.7932 8.97839 28.3464 11.7713 28.0193C11.7674 27.6777 11.7645 27.295 11.7626 26.8745C9.6079 27.3448 8.33581 26.7903 7.60468 26.1448Z"
    />
    <path
      d="M8.14323 24.1726C8.04694 24.0274 7.86645 23.7811 7.60468 23.5349C7.77452 23.7869 7.955 23.9984 8.14323 24.1726Z"
    />
  </g>
</svg>
