<svg
  width="62"
  height="62"
  viewBox="0 0 62 62"
  fill="none"
  xmlns="http://www.w3.org/2000/svg"
>
  <g id="android">
    <path
      d="M27.4167 49.5V56.25C27.4167 57.1186 26.7019 57.8333 25.8333 57.8333C24.9648 57.8333 24.25 57.1186 24.25 56.25V49.5H27.4167Z"
      stroke="white"
      stroke-width="2"
    />
    <path
      d="M37.75 49.5V56.25C37.75 57.1186 37.0352 57.8333 36.1667 57.8333C35.2981 57.8333 34.5833 57.1186 34.5833 56.25V49.5H37.75Z"
      stroke="white"
      stroke-width="2"
    />
    <path
      d="M42.9167 28.4167V41.3333C42.9167 43.6227 41.0394 45.5 38.75 45.5H23.25C20.9606 45.5 19.0833 43.6227 19.0833 41.3333V28.4167C19.0833 26.1273 20.9606 24.25 23.25 24.25H38.75C41.0394 24.25 42.9167 26.1273 42.9167 28.4167Z"
      stroke="white"
      stroke-width="2"
    />
    <path
      d="M11.9167 28.4166V38.75C11.9167 39.6185 11.2019 40.3333 10.3333 40.3333C9.46478 40.3333 8.75 39.6185 8.75 38.75V28.4166C8.75 27.5481 9.46478 26.8333 10.3333 26.8333C11.2019 26.8333 11.9167 27.5481 11.9167 28.4166Z"
      stroke="white"
      stroke-width="2"
    />
    <path
      d="M53.25 28.4166V38.75C53.25 39.6185 52.5352 40.3333 51.6667 40.3333C50.7981 40.3333 50.0833 39.6185 50.0833 38.75V28.4166C50.0833 27.5481 50.7981 26.8333 51.6667 26.8333C52.5352 26.8333 53.25 27.5481 53.25 28.4166Z"
      stroke="white"
      stroke-width="2"
    />
    <path
      d="M40.3333 15.5C40.3333 17.2211 38.9211 18.6334 37.2001 18.6334H24.7999C23.0789 18.6334 21.6667 17.2211 21.6667 15.5C21.6667 10.3431 25.8431 6.16669 31 6.16669C36.1569 6.16669 40.3333 10.3431 40.3333 15.5Z"
      stroke="white"
      stroke-width="2"
    />
  </g>

  <g id="code">
    <path
      d="M19.5 28.1667C18.07 28.8817 16.8783 29.9434 15.99 31.265C15.4917 32.0234 15.4917 32.9767 15.99 33.735C16.8783 35.0567 18.07 36.1184 19.5 36.8334"
      stroke="white"
      stroke-width="3"
      stroke-linecap="round"
      stroke-linejoin="round"
    />
    <path
      d="M32.955 28.1667C34.385 28.8817 35.5767 29.9434 36.465 31.265C36.9633 32.0234 36.9633 32.9767 36.465 33.735C35.5767 35.0567 34.385 36.1184 32.955 36.8334"
      stroke="white"
      stroke-width="3"
      stroke-linecap="round"
      stroke-linejoin="round"
    />
    <path
      d="M4.33333 28.1666V32.5C4.33333 43.3333 8.66666 47.6666 19.5 47.6666H32.5C43.3333 47.6666 47.6667 43.3333 47.6667 32.5V19.5C47.6667 8.66665 43.3333 4.33331 32.5 4.33331H19.5C8.66666 4.33331 4.33333 8.66665 4.33333 19.5"
      stroke="white"
      stroke-width="3"
      stroke-linecap="round"
      stroke-linejoin="round"
    />
    <path
      d="M4.83167 17.355L46.475 17.3333"
      stroke="white"
      stroke-width="3"
      stroke-linecap="round"
      stroke-linejoin="round"
    />
  </g>

  <g id="dribble">
    <path
      fill-rule="evenodd"
      clip-rule="evenodd"
      d="M21.1733 27.8934C21.2133 28.1067 21.0933 28.3334 20.8933 28.4134C19.3866 29.0134 17.7333 29.3334 16.0267 29.3334C13.08 29.3334 10.36 28.3867 8.15996 26.76C7.9733 26.6267 7.92001 26.36 8.04001 26.16C8.77334 24.8534 11.6399 20.6534 17.9733 18.3067C18.2133 18.2134 18.4799 18.3333 18.5599 18.5733C20.1466 22.8267 20.8933 26.4267 21.1733 27.8934Z"
      fill="#7562E0"
    />
    <path
      fill-rule="evenodd"
      clip-rule="evenodd"
      d="M29.0934 18.52C28.4801 21.8 26.64 24.6533 24.0667 26.6C23.7867 26.8133 23.3867 26.6533 23.32 26.32C23.04 24.88 22.36 21.7733 21.0533 18.08C20.96 17.8 21.1467 17.4933 21.4401 17.4533C24.7601 17.0533 27.6667 17.6933 28.7601 17.9866C28.9867 18.0666 29.1334 18.2933 29.0934 18.52Z"
      fill="#7562E0"
    />
    <path
      fill-rule="evenodd"
      clip-rule="evenodd"
      d="M28.7867 15.76C27.4268 15.52 23.96 15.0133 20.4134 15.4C20.2 15.4267 20.0134 15.3067 19.9201 15.1067C19.8667 14.9867 19.8267 14.8667 19.7734 14.7467C19.5601 14.2534 19.3334 13.7467 19.1067 13.2534C18.9867 13.0134 19.1067 12.72 19.3467 12.6134C23.0801 11 25.16 8.92002 25.9734 7.98668C26.1734 7.76002 26.5201 7.77338 26.7068 8.01338C28.2401 10.0534 29.1867 12.5467 29.3334 15.24C29.3467 15.5734 29.0801 15.8134 28.7867 15.76Z"
      fill="#7562E0"
    />
    <path
      fill-rule="evenodd"
      clip-rule="evenodd"
      d="M24.5867 6.38672C23.8934 7.22672 21.9467 9.22669 18.2534 10.6934C18.04 10.7867 17.7867 10.6934 17.6667 10.48C15.96 7.38669 14.1467 4.7867 13.3067 3.61336C13.1067 3.33336 13.2667 2.93338 13.6 2.88005C14.3734 2.74671 15.1867 2.68005 16.0134 2.68005C19.24 2.68005 22.2134 3.8267 24.5201 5.7467C24.7201 5.89337 24.7467 6.18672 24.5867 6.38672Z"
      fill="#7562E0"
    />
    <path
      fill-rule="evenodd"
      clip-rule="evenodd"
      d="M14.6934 11.7867C9.64003 13.0534 5.1733 13.2267 3.54663 13.2534C3.23997 13.2534 3.01335 12.96 3.09335 12.6667C4.05335 8.93338 6.61332 5.81339 9.98666 4.09339C10.1867 3.98673 10.44 4.05337 10.5733 4.24004C11.2667 5.20004 13.1467 7.90673 14.9867 11.0934C15.1333 11.3601 15 11.7067 14.6934 11.7867Z"
      fill="#7562E0"
    />
    <path
      fill-rule="evenodd"
      clip-rule="evenodd"
      d="M17.2267 15.4667C17.3467 15.72 17.2 16.0266 16.9334 16.12C11.0267 18.0266 7.49335 22.76 6.42669 24.3867C6.25335 24.6533 5.88002 24.6667 5.68002 24.4267C3.81336 22.1333 2.68002 19.5066 2.68002 16.32V16.08C2.68002 15.8133 2.89334 15.6 3.16 15.6133C4.84 15.68 10.32 15.4533 16.0134 13.8133C16.2267 13.7466 16.4667 13.8533 16.56 14.0533C16.7867 14.52 17.0133 14.9867 17.2267 15.4667Z"
      fill="#7562E0"
    />
  </g>

  <g id="eye">
    <path
      d="M17.7083 7.62494C15.7833 4.59994 12.9667 2.85828 10 2.85828C8.51667 2.85828 7.07501 3.29161 5.75834 4.09994C4.44167 4.91661 3.25834 6.10828 2.29167 7.62494C1.45834 8.93328 1.45834 11.0583 2.29167 12.3666C4.21667 15.3999 7.03334 17.1333 10 17.1333C11.4833 17.1333 12.925 16.6999 14.2417 15.8916C15.5583 15.0749 16.7417 13.8833 17.7083 12.3666C18.5417 11.0666 18.5417 8.93328 17.7083 7.62494ZM10 13.3666C8.13334 13.3666 6.63334 11.8583 6.63334 9.99994C6.63334 8.14161 8.13334 6.63328 10 6.63328C11.8667 6.63328 13.3667 8.14161 13.3667 9.99994C13.3667 11.8583 11.8667 13.3666 10 13.3666Z"
      fill="white"
    />
    <path
      d="M10 7.6167C8.69167 7.6167 7.625 8.68337 7.625 10C7.625 11.3084 8.69167 12.375 10 12.375C11.3083 12.375 12.3833 11.3084 12.3833 10C12.3833 8.6917 11.3083 7.6167 10 7.6167Z"
      fill="white"
    />
  </g>

  <g id="fb">
    <path
      d="M29.3334 21.5866C29.3334 26.44 26.44 29.3333 21.5867 29.3333H20C19.2667 29.3333 18.6667 28.7333 18.6667 28V20.3066C18.6667 19.9466 18.96 19.64 19.32 19.64L21.6667 19.6C21.8534 19.5866 22.0134 19.4533 22.0534 19.2666L22.52 16.72C22.56 16.48 22.3734 16.2533 22.12 16.2533L19.28 16.2933C18.9067 16.2933 18.6134 16 18.6 15.64L18.5467 12.3733C18.5467 12.16 18.72 11.9733 18.9467 11.9733L22.1467 11.92C22.3733 11.92 22.5467 11.7466 22.5467 11.52L22.4933 8.31995C22.4933 8.09328 22.32 7.91996 22.0934 7.91996L18.4933 7.97331C16.28 8.01331 14.52 9.82662 14.56 12.04L14.6267 15.7066C14.64 16.08 14.3467 16.3733 13.9734 16.3866L12.3734 16.4133C12.1467 16.4133 11.9734 16.5866 11.9734 16.8133L12.0134 19.3466C12.0134 19.5733 12.1867 19.7466 12.4134 19.7466L14.0134 19.72C14.3867 19.72 14.68 20.0133 14.6933 20.3733L14.8133 27.9733C14.8267 28.72 14.2267 29.3333 13.48 29.3333H10.4134C5.56002 29.3333 2.66669 26.44 2.66669 21.5733V10.4133C2.66669 5.55996 5.56002 2.66663 10.4134 2.66663H21.5867C26.44 2.66663 29.3334 5.55996 29.3334 10.4133V21.5866Z"
      fill="#7562E0"
    />
  </g>

  <g id="git">
    <path
      d="M20.15 35.65V24.8"
      stroke="#F5F5F5"
      stroke-width="3"
      stroke-linecap="round"
      stroke-linejoin="round"
    />
    <path
      d="M20.5375 46.5C23.3197 46.5 25.5751 44.2446 25.5751 41.4625C25.5751 38.6803 23.3197 36.425 20.5375 36.425C17.7554 36.425 15.5 38.6803 15.5 41.4625C15.5 44.2446 17.7554 46.5 20.5375 46.5Z"
      stroke="#F5F5F5"
      stroke-width="3"
      stroke-linecap="round"
      stroke-linejoin="round"
    />
    <path
      d="M20.15 24.8C22.7181 24.8 24.7999 22.7181 24.7999 20.15C24.7999 17.5818 22.7181 15.5 20.15 15.5C17.5818 15.5 15.5 17.5818 15.5 20.15C15.5 22.7181 17.5818 24.8 20.15 24.8Z"
      stroke="#F5F5F5"
      stroke-width="3"
      stroke-linecap="round"
      stroke-linejoin="round"
    />
    <path
      d="M41.85 24.8C44.4182 24.8 46.5 22.7181 46.5 20.15C46.5 17.5818 44.4182 15.5 41.85 15.5C39.2819 15.5 37.2001 17.5818 37.2001 20.15C37.2001 22.7181 39.2819 24.8 41.85 24.8Z"
      stroke="#F5F5F5"
      stroke-width="3"
      stroke-linecap="round"
      stroke-linejoin="round"
    />
    <path
      d="M20.3567 35.6499C21.0542 32.9374 23.5342 30.9225 26.4533 30.9483L31.775 30.9741C35.8308 30.9999 39.2925 28.3907 40.5584 24.7482"
      stroke="#F5F5F5"
      stroke-width="3"
      stroke-linecap="round"
      stroke-linejoin="round"
    />
    <path
      d="M23.25 5.16661H38.75C51.6667 5.16661 56.8333 10.3333 56.8333 23.2499V38.7499C56.8333 51.6666 51.6667 56.8333 38.75 56.8333H23.25C10.3333 56.8333 5.16666 51.6666 5.16666 38.7499V23.2499C5.16666 10.3333 10.3333 5.16661 23.25 5.16661Z"
      stroke="#F5F5F5"
      stroke-width="3"
      stroke-linecap="round"
      stroke-linejoin="round"
    />
  </g>

  <g id="instagram">
    <path
      d="M21.5867 2.66663H10.4133C5.55999 2.66663 2.66666 5.55996 2.66666 10.4133V21.5733C2.66666 26.44 5.55999 29.3333 10.4133 29.3333H21.5733C26.4267 29.3333 29.32 26.44 29.32 21.5866V10.4133C29.3333 5.55996 26.44 2.66663 21.5867 2.66663ZM16 21.1733C13.1467 21.1733 10.8267 18.8533 10.8267 16C10.8267 13.1466 13.1467 10.8266 16 10.8266C18.8533 10.8266 21.1733 13.1466 21.1733 16C21.1733 18.8533 18.8533 21.1733 16 21.1733ZM23.8933 9.17329C23.8267 9.33329 23.7333 9.47996 23.6133 9.61329C23.48 9.73329 23.3333 9.82663 23.1733 9.89329C23.0133 9.95996 22.84 9.99996 22.6667 9.99996C22.3067 9.99996 21.9733 9.86663 21.72 9.61329C21.6 9.47996 21.5067 9.33329 21.44 9.17329C21.3733 9.01329 21.3333 8.83996 21.3333 8.66663C21.3333 8.49329 21.3733 8.31996 21.44 8.15996C21.5067 7.98663 21.6 7.85329 21.72 7.71996C22.0267 7.41329 22.4933 7.26663 22.92 7.35996C23.0133 7.37329 23.0933 7.39996 23.1733 7.43996C23.2533 7.46663 23.3333 7.50663 23.4133 7.55996C23.48 7.59996 23.5467 7.66663 23.6133 7.71996C23.7333 7.85329 23.8267 7.98663 23.8933 8.15996C23.96 8.31996 24 8.49329 24 8.66663C24 8.83996 23.96 9.01329 23.8933 9.17329Z"
      fill="#7562E0"
    />
  </g>

  <g id="js">
    <path
      d="M18.895 12.7725V32.9775L11.875 30.9525"
      stroke="white"
      stroke-width="3"
      stroke-miterlimit="10"
      stroke-linecap="round"
      stroke-linejoin="round"
    />
    <path
      d="M32.125 12.75L25.0374 13.7625V24.9L32.125 23.8875V30.975L24.0251 33"
      stroke="white"
      stroke-width="3"
      stroke-miterlimit="10"
      stroke-linecap="round"
      stroke-linejoin="round"
    />
    <path
      d="M2.47008 8.04751L2.02005 3.9975C1.86255 2.67 2.92003 1.5 4.24753 1.5H39.7301C41.0801 1.5 42.115 2.67 41.9575 3.9975L37.9076 40.4925C37.8176 41.3925 37.165 42.1575 36.2875 42.405L22.6076 46.32C22.2026 46.4325 21.775 46.4325 21.37 46.32L7.6901 42.405C6.8126 42.1575 6.18252 41.3925 6.07002 40.4925L3.59508 18.1725"
      stroke="white"
      stroke-width="3"
      stroke-miterlimit="10"
      stroke-linecap="round"
      stroke-linejoin="round"
    />
  </g>

  <g id="python">
    <path
      d="M15.2916 16.2966H16.2916V15.2966V5.1801C16.2916 3.42393 17.577 1.91401 19.3503 1.63208C24.7457 0.79598 30.2492 0.795979 35.6446 1.63208C37.4179 1.91399 38.7033 3.42392 38.7033 5.1801V9.79851C38.7033 10.016 38.5462 10.173 38.3288 10.173H36.9543C35.6322 10.173 34.5797 11.2255 34.5797 12.5476V21.3996C34.5797 21.9469 34.1477 22.3789 33.6004 22.3789H21.3946C15.2067 22.3789 10.168 27.4175 10.168 33.6054V38.3338C10.168 38.5513 10.011 38.7083 9.7935 38.7083H5.1751C3.41891 38.7083 1.90898 37.4229 1.62707 35.6496C0.790974 30.2542 0.790975 24.7507 1.62708 19.3553C1.909 17.582 3.41892 16.2966 5.1751 16.2966H15.2916ZM19.7073 7.65424C19.7073 8.53161 20.1181 9.32458 20.6771 9.88363C21.2362 10.4427 22.0291 10.8535 22.9065 10.8535C23.7915 10.8535 24.591 10.4478 25.157 9.8866C25.7219 9.32641 26.1333 8.5322 26.1333 7.65424C26.1333 6.80854 25.7508 5.91702 25.1409 5.34057C24.5652 4.77197 23.7109 4.42751 22.9065 4.42751C22.0286 4.42751 21.2344 4.83884 20.6742 5.40376C20.1129 5.96971 19.7073 6.76923 19.7073 7.65424Z"
      stroke="white"
      stroke-width="2"
    />
    <path
      d="M39.7034 38.7084H38.7034V39.7084V49.8249C38.7034 51.5811 37.4179 53.0911 35.6446 53.3729C30.2492 54.209 24.7458 54.209 19.3504 53.373C17.5771 53.0911 16.2917 51.5811 16.2917 49.8249V33.6055C16.2917 30.7764 18.5655 28.5025 21.3946 28.5025H33.6004C37.537 28.5025 40.7034 25.3028 40.7034 21.3996V16.6712C40.7034 16.4538 40.8604 16.2967 41.0779 16.2967H49.8199C51.5761 16.2967 53.086 17.5821 53.3679 19.3555C54.204 24.7508 54.204 30.2543 53.3679 35.6496C53.086 37.423 51.5761 38.7084 49.8199 38.7084H39.7034ZM34.3103 44.9978L34.3084 44.9961C33.7383 44.4667 32.8629 44.124 32.0885 44.124C31.2029 44.124 30.4021 44.5302 29.835 45.0973C29.2679 45.6644 28.8617 46.4652 28.8617 47.3508C28.8617 48.2441 29.2812 49.0449 29.8483 49.6072C30.4141 50.1684 31.213 50.5775 32.0885 50.5775C32.9674 50.5775 33.7614 50.1653 34.3242 49.5978C34.8888 49.0286 35.2944 48.2302 35.3149 47.3465L35.3152 47.3349V47.3233C35.3152 46.5058 34.9321 45.5782 34.3103 44.9978Z"
      stroke="white"
      stroke-width="2"
    />
  </g>

  <g id="ruler">
    <mask id="path-1-inside-1_10_948" fill="none">
      <path
        d="M32.3225 39.8125H25.3225C21.0875 39.8125 18.76 37.485 18.76 33.25V8.75C18.76 4.515 21.0875 2.1875 25.3225 2.1875H32.3225C36.5575 2.1875 38.885 4.515 38.885 8.75V33.25C38.885 37.485 36.54 39.8125 32.3225 39.8125ZM25.3225 4.8125C22.5575 4.8125 21.385 5.985 21.385 8.75V33.25C21.385 36.015 22.5575 37.1875 25.3225 37.1875H32.3225C35.0875 37.1875 36.26 36.015 36.26 33.25V8.75C36.26 5.985 35.0875 4.8125 32.3225 4.8125H25.3225Z"
      />
    </mask>
    <path
      d="M32.3225 36.8125H25.3225V42.8125H32.3225V36.8125ZM25.3225 36.8125C23.7395 36.8125 22.962 36.3856 22.5745 35.9981C22.1869 35.6105 21.76 34.833 21.76 33.25H15.76C15.76 35.902 16.4969 38.4057 18.3318 40.2407C20.1668 42.0756 22.6705 42.8125 25.3225 42.8125V36.8125ZM21.76 33.25V8.75H15.76V33.25H21.76ZM21.76 8.75C21.76 7.16696 22.1869 6.38949 22.5745 6.00195C22.962 5.6144 23.7395 5.1875 25.3225 5.1875V-0.8125C22.6705 -0.8125 20.1668 -0.0756502 18.3318 1.7593C16.4969 3.59426 15.76 6.09804 15.76 8.75H21.76ZM25.3225 5.1875H32.3225V-0.8125H25.3225V5.1875ZM32.3225 5.1875C33.9055 5.1875 34.683 5.6144 35.0706 6.00195C35.4581 6.38949 35.885 7.16696 35.885 8.75H41.885C41.885 6.09804 41.1482 3.59426 39.3132 1.7593C37.4782 -0.0756502 34.9745 -0.8125 32.3225 -0.8125V5.1875ZM35.885 8.75V33.25H41.885V8.75H35.885ZM35.885 33.25C35.885 34.8271 35.457 35.6058 35.0661 35.996C34.6742 36.3871 33.8938 36.8125 32.3225 36.8125V42.8125C34.9687 42.8125 37.4696 42.0741 39.3046 40.2428C41.1405 38.4104 41.885 35.9079 41.885 33.25H35.885ZM25.3225 1.8125C23.6012 1.8125 21.6536 2.16505 20.1956 3.62305C18.7376 5.08106 18.385 7.0287 18.385 8.75H24.385C24.385 7.7063 24.6187 7.68519 24.4382 7.8657C24.2577 8.0462 24.2788 7.8125 25.3225 7.8125V1.8125ZM18.385 8.75V33.25H24.385V8.75H18.385ZM18.385 33.25C18.385 34.9713 18.7376 36.9189 20.1956 38.3769C21.6536 39.8349 23.6012 40.1875 25.3225 40.1875V34.1875C24.2788 34.1875 24.2577 33.9538 24.4382 34.1343C24.6187 34.3148 24.385 34.2937 24.385 33.25H18.385ZM25.3225 40.1875H32.3225V34.1875H25.3225V40.1875ZM32.3225 40.1875C34.0438 40.1875 35.9914 39.8349 37.4495 38.3769C38.9075 36.9189 39.26 34.9713 39.26 33.25H33.26C33.26 34.2937 33.0263 34.3148 33.2068 34.1343C33.3873 33.9538 33.3662 34.1875 32.3225 34.1875V40.1875ZM39.26 33.25V8.75H33.26V33.25H39.26ZM39.26 8.75C39.26 7.0287 38.9075 5.08106 37.4495 3.62305C35.9914 2.16505 34.0438 1.8125 32.3225 1.8125V7.8125C33.3662 7.8125 33.3873 8.0462 33.2068 7.8657C33.0263 7.68519 33.26 7.7063 33.26 8.75H39.26ZM32.3225 1.8125H25.3225V7.8125H32.3225V1.8125Z"
      fill="none"
      mask="url(#path-1-inside-1_10_948)"
    />
    <mask id="path-3-inside-2_10_948" fill="none">
      <path
        d="M28.8225 11.8125H20.0725C19.355 11.8125 18.76 11.2175 18.76 10.5C18.76 9.7825 19.355 9.1875 20.0725 9.1875H28.8225C29.54 9.1875 30.135 9.7825 30.135 10.5C30.135 11.2175 29.54 11.8125 28.8225 11.8125Z"
      />
    </mask>
    <path
      d="M28.8225 8.8125H20.0725V14.8125H28.8225V8.8125ZM20.0725 8.8125C21.0119 8.8125 21.76 9.56065 21.76 10.5H15.76C15.76 12.8744 17.6982 14.8125 20.0725 14.8125V8.8125ZM21.76 10.5C21.76 11.4394 21.0119 12.1875 20.0725 12.1875V6.1875C17.6982 6.1875 15.76 8.12565 15.76 10.5H21.76ZM20.0725 12.1875H28.8225V6.1875H20.0725V12.1875ZM28.8225 12.1875C27.8832 12.1875 27.135 11.4394 27.135 10.5H33.135C33.135 8.12565 31.1969 6.1875 28.8225 6.1875V12.1875ZM27.135 10.5C27.135 9.56065 27.8832 8.8125 28.8225 8.8125V14.8125C31.1969 14.8125 33.135 12.8744 33.135 10.5H27.135Z"
      fill="white"
      mask="url(#path-3-inside-2_10_948)"
    />
    <mask id="path-5-inside-3_10_948" fill="white">
      <path
        d="M27.0725 32.8125H20.0725C19.355 32.8125 18.76 32.2175 18.76 31.5C18.76 30.7825 19.355 30.1875 20.0725 30.1875H27.0725C27.79 30.1875 28.385 30.7825 28.385 31.5C28.385 32.2175 27.79 32.8125 27.0725 32.8125Z"
      />
    </mask>
    <path
      d="M27.0725 29.8125H20.0725V35.8125H27.0725V29.8125ZM20.0725 29.8125C21.0119 29.8125 21.76 30.5606 21.76 31.5H15.76C15.76 33.8744 17.6982 35.8125 20.0725 35.8125V29.8125ZM21.76 31.5C21.76 32.4394 21.0119 33.1875 20.0725 33.1875V27.1875C17.6982 27.1875 15.76 29.1256 15.76 31.5H21.76ZM20.0725 33.1875H27.0725V27.1875H20.0725V33.1875ZM27.0725 33.1875C26.1332 33.1875 25.385 32.4393 25.385 31.5H31.385C31.385 29.1257 29.4469 27.1875 27.0725 27.1875V33.1875ZM25.385 31.5C25.385 30.5607 26.1332 29.8125 27.0725 29.8125V35.8125C29.4469 35.8125 31.385 33.8743 31.385 31.5H25.385Z"
      fill="white"
      mask="url(#path-5-inside-3_10_948)"
    />
    <mask id="path-7-inside-4_10_948" fill="white">
      <path
        d="M28.8225 25.8125C28.805 25.8125 28.805 25.8125 28.8225 25.8125L20.055 25.725C19.3375 25.725 18.7425 25.13 18.76 24.395C18.76 23.6775 19.355 23.1 20.0725 23.1C20.0725 23.1 20.0725 23.1 20.09 23.1L28.84 23.1875C29.5575 23.1875 30.1525 23.7825 30.135 24.5175C30.1175 25.235 29.54 25.8125 28.8225 25.8125Z"
      />
    </mask>
    <mask id="path-9-inside-5_10_948" fill="white">
      <path
        d="M25.3225 18.8125H20.0725C19.355 18.8125 18.76 18.2175 18.76 17.5C18.76 16.7825 19.355 16.1875 20.0725 16.1875H25.3225C26.04 16.1875 26.635 16.7825 26.635 17.5C26.635 18.2175 26.04 18.8125 25.3225 18.8125Z"
      />
    </mask>
    <path
      d="M25.3225 15.8125H20.0725V21.8125H25.3225V15.8125ZM20.0725 15.8125C21.0119 15.8125 21.76 16.5606 21.76 17.5H15.76C15.76 19.8744 17.6982 21.8125 20.0725 21.8125V15.8125ZM21.76 17.5C21.76 18.4394 21.0119 19.1875 20.0725 19.1875V13.1875C17.6982 13.1875 15.76 15.1256 15.76 17.5H21.76ZM20.0725 19.1875H25.3225V13.1875H20.0725V19.1875ZM25.3225 19.1875C24.3832 19.1875 23.635 18.4394 23.635 17.5H29.635C29.635 15.1256 27.6969 13.1875 25.3225 13.1875V19.1875ZM23.635 17.5C23.635 16.5606 24.3832 15.8125 25.3225 15.8125V21.8125C27.6969 21.8125 29.635 19.8744 29.635 17.5H23.635Z"
      fill="white"
      mask="url(#path-9-inside-5_10_948)"
    />
    <mask id="path-11-inside-6_10_948" fill="white">
      <path
        d="M9.60749 39.76C8.01499 39.76 6.50999 38.78 5.47749 37.065L4.04249 34.685C3.51749 33.81 3.11499 32.375 3.11499 31.36V8.6625C3.11499 5.0925 6.01999 2.1875 9.58999 2.1875C13.16 2.1875 16.065 5.0925 16.065 8.6625V31.3425C16.065 32.3575 15.6625 33.7925 15.1375 34.6675L13.7025 37.0475C12.705 38.78 11.2 39.76 9.60749 39.76ZM9.60749 4.8125C7.48999 4.8125 5.75749 6.545 5.75749 8.6625V31.3425C5.75749 31.885 6.01999 32.8475 6.29999 33.32L7.73499 35.7C8.27749 36.61 8.95999 37.1175 9.60749 37.1175C10.255 37.1175 10.9375 36.5925 11.48 35.7L12.915 33.32C13.195 32.8475 13.4575 31.885 13.4575 31.3425V8.6625C13.4575 6.545 11.725 4.8125 9.60749 4.8125Z"
      />
    </mask>
    <path
      d="M5.47749 37.065L8.04765 35.5177L8.04663 35.516L5.47749 37.065ZM4.04249 34.685L1.47001 36.2285L1.47335 36.234L4.04249 34.685ZM15.1375 34.6675L17.7066 36.2165L17.71 36.211L15.1375 34.6675ZM13.7025 37.0475L11.1334 35.4985L11.1177 35.5244L11.1026 35.5506L13.7025 37.0475ZM6.29999 33.32L3.71912 34.8494L3.72495 34.8592L3.73085 34.869L6.29999 33.32ZM7.73499 35.7L10.3118 34.1638L10.308 34.1574L10.3041 34.151L7.73499 35.7ZM11.48 35.7L14.0436 37.2583L14.0491 37.249L11.48 35.7ZM12.915 33.32L15.4841 34.869L15.49 34.8592L15.4959 34.8494L12.915 33.32ZM9.60749 36.76C9.34221 36.76 8.69619 36.5949 8.04765 35.5177L2.90733 38.6123C4.32379 40.9651 6.68777 42.76 9.60749 42.76V36.76ZM8.04663 35.516L6.61163 33.136L1.47335 36.234L2.90835 38.614L8.04663 35.516ZM6.61497 33.1415C6.36488 32.7247 6.11499 31.822 6.11499 31.36H0.11499C0.11499 32.928 0.670095 34.8953 1.47001 36.2285L6.61497 33.1415ZM6.11499 31.36V8.6625H0.11499V31.36H6.11499ZM6.11499 8.6625C6.11499 6.74935 7.67684 5.1875 9.58999 5.1875V-0.8125C4.36314 -0.8125 0.11499 3.43565 0.11499 8.6625H6.11499ZM9.58999 5.1875C11.5031 5.1875 13.065 6.74935 13.065 8.6625H19.065C19.065 3.43564 14.8168 -0.8125 9.58999 -0.8125V5.1875ZM13.065 8.6625V31.3425H19.065V8.6625H13.065ZM13.065 31.3425C13.065 31.8045 12.8151 32.7072 12.565 33.124L17.71 36.211C18.5099 34.8778 19.065 32.9105 19.065 31.3425H13.065ZM12.5684 33.1185L11.1334 35.4985L16.2716 38.5965L17.7066 36.2165L12.5684 33.1185ZM11.1026 35.5506C10.4983 36.6002 9.86945 36.76 9.60749 36.76V42.76C12.5305 42.76 14.9117 40.9598 16.3024 38.5444L11.1026 35.5506ZM9.60749 1.8125C5.83314 1.8125 2.75749 4.88815 2.75749 8.6625H8.75749C8.75749 8.20185 9.14684 7.8125 9.60749 7.8125V1.8125ZM2.75749 8.6625V31.3425H8.75749V8.6625H2.75749ZM2.75749 31.3425C2.75749 31.9937 2.89646 32.6612 3.03024 33.1498C3.16418 33.6389 3.38522 34.286 3.71912 34.8494L8.88086 31.7906C8.90532 31.8319 8.91532 31.854 8.91346 31.85C8.91236 31.8477 8.90556 31.8328 8.8945 31.8042C8.8716 31.7451 8.84369 31.6618 8.81724 31.5652C8.79078 31.4686 8.77243 31.3829 8.76206 31.3207C8.75706 31.2907 8.75535 31.2747 8.75513 31.2725C8.75474 31.2685 8.75749 31.2934 8.75749 31.3425H2.75749ZM3.73085 34.869L5.16585 37.249L10.3041 34.151L8.86913 31.771L3.73085 34.869ZM5.15815 37.2362C5.90407 38.4874 7.37836 40.1175 9.60749 40.1175V34.1175C10.0881 34.1175 10.3733 34.3059 10.4371 34.3539C10.4986 34.4003 10.4348 34.3701 10.3118 34.1638L5.15815 37.2362ZM9.60749 40.1175C11.8554 40.1175 13.3243 38.4415 14.0436 37.2582L8.91642 34.1418C8.78926 34.351 8.71839 34.3926 8.76745 34.3553C8.81419 34.3197 9.10331 34.1175 9.60749 34.1175V40.1175ZM14.0491 37.249L15.4841 34.869L10.3459 31.771L8.91085 34.151L14.0491 37.249ZM15.4959 34.8494C15.8298 34.286 16.0508 33.6389 16.1847 33.1498C16.3185 32.6612 16.4575 31.9937 16.4575 31.3425H10.4575C10.4575 31.2934 10.4602 31.2685 10.4598 31.2725C10.4596 31.2747 10.4579 31.2907 10.4529 31.3207C10.4426 31.3829 10.4242 31.4686 10.3977 31.5652C10.3713 31.6618 10.3434 31.7451 10.3205 31.8042C10.3094 31.8328 10.3026 31.8477 10.3015 31.85C10.2997 31.854 10.3097 31.8319 10.3341 31.7906L15.4959 34.8494ZM16.4575 31.3425V8.6625H10.4575V31.3425H16.4575ZM16.4575 8.6625C16.4575 4.88814 13.3818 1.8125 9.60749 1.8125V7.8125C10.0681 7.8125 10.4575 8.20185 10.4575 8.6625H16.4575Z"
      fill="white"
      mask="url(#path-11-inside-6_10_948)"
    />
    <mask id="path-13-inside-7_10_948" fill="white">
      <path
        d="M14.77 13.5625H4.42749C3.70999 13.5625 3.11499 12.9675 3.11499 12.25C3.11499 11.5325 3.70999 10.9375 4.42749 10.9375H14.77C15.4875 10.9375 16.0825 11.5325 16.0825 12.25C16.0825 12.9675 15.4875 13.5625 14.77 13.5625Z"
      />
    </mask>
    <path
      d="M14.77 10.5625H4.42749V16.5625H14.77V10.5625ZM4.42749 10.5625C5.36684 10.5625 6.11499 11.3106 6.11499 12.25H0.11499C0.11499 14.6244 2.05314 16.5625 4.42749 16.5625V10.5625ZM6.11499 12.25C6.11499 13.1894 5.36684 13.9375 4.42749 13.9375V7.9375C2.05314 7.9375 0.11499 9.87565 0.11499 12.25H6.11499ZM4.42749 13.9375H14.77V7.9375H4.42749V13.9375ZM14.77 13.9375C13.8306 13.9375 13.0825 13.1894 13.0825 12.25H19.0825C19.0825 9.87565 17.1443 7.9375 14.77 7.9375V13.9375ZM13.0825 12.25C13.0825 11.3106 13.8306 10.5625 14.77 10.5625V16.5625C17.1443 16.5625 19.0825 14.6244 19.0825 12.25H13.0825Z"
      fill="white"
      mask="url(#path-13-inside-7_10_948)"
    />
  </g>

  <g id="slider">
    <path
      d="M36 32.02C37.1 32.02 38 32.92 38 34.02V36C38 40.4 35 44 30 44H18C13 44 10 40.4 10 36V34.02C10 32.92 10.9 32.02 12 32.02H36Z"
      fill="white"
    />
    <path
      d="M38 12V27C38 28.1 37.1 29 36 29H12C10.9 29 10 28.1 10 27V12C10 7.60003 13 4.00003 18 4.00003H30C35 4.00003 38 7.60003 38 12Z"
      fill="white"
    />
    <path
      d="M6 41.5C5.18 41.5 4.5 40.82 4.5 40V7.99997C4.5 7.17997 5.18 6.49997 6 6.49997C6.82 6.49997 7.5 7.17997 7.5 7.99997V40C7.5 40.82 6.82 41.5 6 41.5Z"
      fill="white"
    />
    <path
      d="M42 41.5C41.18 41.5 40.5 40.82 40.5 40V7.99997C40.5 7.17997 41.18 6.49997 42 6.49997C42.82 6.49997 43.5 7.17997 43.5 7.99997V40C43.5 40.82 42.82 41.5 42 41.5Z"
      fill="white"
    />
  </g>

  <g id="sms">
    <path
      d="M22.6667 4.66663H9.33332C5.33332 4.66663 2.66666 6.66663 2.66666 11.3333V20.6666C2.66666 25.3333 5.33332 27.3333 9.33332 27.3333H22.6667C26.6667 27.3333 29.3333 25.3333 29.3333 20.6666V11.3333C29.3333 6.66663 26.6667 4.66663 22.6667 4.66663ZM23.2933 12.7866L19.12 16.12C18.24 16.8266 17.12 17.1733 16 17.1733C14.88 17.1733 13.7467 16.8266 12.88 16.12L8.70666 12.7866C8.27999 12.44 8.21332 11.8 8.54666 11.3733C8.89332 10.9466 9.51999 10.8666 9.94666 11.2133L14.12 14.5466C15.1333 15.36 16.8533 15.36 17.8667 14.5466L22.04 11.2133C22.4667 10.8666 23.1067 10.9333 23.44 11.3733C23.7867 11.8 23.72 12.44 23.2933 12.7866Z"
      fill="#7562E0"
    />
  </g>

  <g id="user">
    <path
      d="M10 9.99996C12.3012 9.99996 14.1667 8.13448 14.1667 5.83329C14.1667 3.53211 12.3012 1.66663 10 1.66663C7.69882 1.66663 5.83334 3.53211 5.83334 5.83329C5.83334 8.13448 7.69882 9.99996 10 9.99996Z"
      fill="white"
    />
    <path
      d="M9.99999 12.0834C5.82499 12.0834 2.42499 14.8834 2.42499 18.3334C2.42499 18.5667 2.60832 18.75 2.84165 18.75H17.1583C17.3917 18.75 17.575 18.5667 17.575 18.3334C17.575 14.8834 14.175 12.0834 9.99999 12.0834Z"
      fill="white"
    />
  </g>
</svg>
